<mxfile host="app.diagrams.net" modified="2024-02-19T12:30:44.707Z" agent="Mozilla/5.0 (Windows NT 10.0; Win64; x64) AppleWebKit/537.36 (KHTML, like Gecko) Chrome/121.0.0.0 Safari/537.36" etag="8sz4J6DTdMsA3o9WCEjj" version="23.1.4" type="github">
  <diagram name="Page-1" id="s3cshE9crdMEq1BwNUjz">
    <mxGraphModel dx="1235" dy="716" grid="1" gridSize="10" guides="1" tooltips="1" connect="1" arrows="1" fold="1" page="1" pageScale="1" pageWidth="850" pageHeight="1100" math="0" shadow="0">
      <root>
        <mxCell id="0" />
        <mxCell id="1" parent="0" />
        <mxCell id="HoYcae2W5h6Q39IpQCH1-10" value="" style="rounded=0;whiteSpace=wrap;html=1;strokeColor=none;fillColor=#d5e8d4;opacity=80;" vertex="1" parent="1">
          <mxGeometry x="210" y="220" width="430" height="300" as="geometry" />
        </mxCell>
        <mxCell id="HoYcae2W5h6Q39IpQCH1-38" value="" style="rounded=0;whiteSpace=wrap;html=1;strokeColor=none;fillColor=#f8cecc;opacity=80;" vertex="1" parent="1">
          <mxGeometry x="210" y="530" width="430" height="60" as="geometry" />
        </mxCell>
        <mxCell id="HoYcae2W5h6Q39IpQCH1-1" value="" style="rounded=0;whiteSpace=wrap;html=1;strokeColor=none;fillColor=#fff2cc;opacity=80;" vertex="1" parent="1">
          <mxGeometry x="210" y="90" width="430" height="120" as="geometry" />
        </mxCell>
        <mxCell id="HoYcae2W5h6Q39IpQCH1-9" style="edgeStyle=orthogonalEdgeStyle;rounded=0;orthogonalLoop=1;jettySize=auto;html=1;exitX=0.5;exitY=1;exitDx=0;exitDy=0;entryX=0.5;entryY=0;entryDx=0;entryDy=0;" edge="1" parent="1" source="HoYcae2W5h6Q39IpQCH1-2" target="HoYcae2W5h6Q39IpQCH1-3">
          <mxGeometry relative="1" as="geometry" />
        </mxCell>
        <mxCell id="HoYcae2W5h6Q39IpQCH1-2" value="Step 1: Formulate the problem" style="rounded=1;whiteSpace=wrap;html=1;fillColor=none;" vertex="1" parent="1">
          <mxGeometry x="360" y="100" width="250" height="40" as="geometry" />
        </mxCell>
        <mxCell id="HoYcae2W5h6Q39IpQCH1-44" style="edgeStyle=orthogonalEdgeStyle;rounded=0;orthogonalLoop=1;jettySize=auto;html=1;exitX=0.5;exitY=1;exitDx=0;exitDy=0;entryX=0.5;entryY=0;entryDx=0;entryDy=0;" edge="1" parent="1" source="HoYcae2W5h6Q39IpQCH1-3" target="HoYcae2W5h6Q39IpQCH1-12">
          <mxGeometry relative="1" as="geometry" />
        </mxCell>
        <mxCell id="HoYcae2W5h6Q39IpQCH1-3" value="Step 2: Develop and validate the review protocol" style="rounded=1;whiteSpace=wrap;html=1;fillColor=none;" vertex="1" parent="1">
          <mxGeometry x="360" y="158" width="250" height="40" as="geometry" />
        </mxCell>
        <mxCell id="HoYcae2W5h6Q39IpQCH1-4" value="Planning the review" style="text;html=1;align=center;verticalAlign=middle;whiteSpace=wrap;rounded=0;fontStyle=1" vertex="1" parent="1">
          <mxGeometry x="250" y="135" width="70" height="30" as="geometry" />
        </mxCell>
        <mxCell id="HoYcae2W5h6Q39IpQCH1-11" style="edgeStyle=orthogonalEdgeStyle;rounded=0;orthogonalLoop=1;jettySize=auto;html=1;exitX=0.5;exitY=1;exitDx=0;exitDy=0;entryX=0.5;entryY=0;entryDx=0;entryDy=0;" edge="1" parent="1" source="HoYcae2W5h6Q39IpQCH1-12" target="HoYcae2W5h6Q39IpQCH1-13">
          <mxGeometry relative="1" as="geometry" />
        </mxCell>
        <mxCell id="HoYcae2W5h6Q39IpQCH1-12" value="Step 3: Search the literature" style="rounded=1;whiteSpace=wrap;html=1;fillColor=none;" vertex="1" parent="1">
          <mxGeometry x="360" y="230" width="250" height="40" as="geometry" />
        </mxCell>
        <mxCell id="HoYcae2W5h6Q39IpQCH1-22" style="edgeStyle=orthogonalEdgeStyle;rounded=0;orthogonalLoop=1;jettySize=auto;html=1;exitX=0.5;exitY=1;exitDx=0;exitDy=0;entryX=0.5;entryY=0;entryDx=0;entryDy=0;" edge="1" parent="1" source="HoYcae2W5h6Q39IpQCH1-13" target="HoYcae2W5h6Q39IpQCH1-16">
          <mxGeometry relative="1" as="geometry" />
        </mxCell>
        <mxCell id="HoYcae2W5h6Q39IpQCH1-13" value="Step 4: Screen for inclusion" style="rounded=1;whiteSpace=wrap;html=1;fillColor=none;" vertex="1" parent="1">
          <mxGeometry x="360" y="290" width="250" height="40" as="geometry" />
        </mxCell>
        <mxCell id="HoYcae2W5h6Q39IpQCH1-14" value="Conducting the review" style="text;html=1;align=center;verticalAlign=middle;whiteSpace=wrap;rounded=0;fontStyle=1" vertex="1" parent="1">
          <mxGeometry x="250" y="355" width="70" height="30" as="geometry" />
        </mxCell>
        <mxCell id="HoYcae2W5h6Q39IpQCH1-15" style="edgeStyle=orthogonalEdgeStyle;rounded=0;orthogonalLoop=1;jettySize=auto;html=1;exitX=0.5;exitY=1;exitDx=0;exitDy=0;entryX=0.5;entryY=0;entryDx=0;entryDy=0;" edge="1" parent="1" source="HoYcae2W5h6Q39IpQCH1-16" target="HoYcae2W5h6Q39IpQCH1-17">
          <mxGeometry relative="1" as="geometry" />
        </mxCell>
        <mxCell id="HoYcae2W5h6Q39IpQCH1-16" value="Step 5: Assess quality" style="rounded=1;whiteSpace=wrap;html=1;fillColor=none;" vertex="1" parent="1">
          <mxGeometry x="360" y="350" width="250" height="40" as="geometry" />
        </mxCell>
        <mxCell id="HoYcae2W5h6Q39IpQCH1-23" style="edgeStyle=orthogonalEdgeStyle;rounded=0;orthogonalLoop=1;jettySize=auto;html=1;exitX=0.5;exitY=1;exitDx=0;exitDy=0;entryX=0.5;entryY=0;entryDx=0;entryDy=0;" edge="1" parent="1" source="HoYcae2W5h6Q39IpQCH1-17" target="HoYcae2W5h6Q39IpQCH1-19">
          <mxGeometry relative="1" as="geometry" />
        </mxCell>
        <mxCell id="HoYcae2W5h6Q39IpQCH1-17" value="Step 6: Extract data" style="rounded=1;whiteSpace=wrap;html=1;fillColor=none;" vertex="1" parent="1">
          <mxGeometry x="360" y="410" width="250" height="40" as="geometry" />
        </mxCell>
        <mxCell id="HoYcae2W5h6Q39IpQCH1-18" style="edgeStyle=orthogonalEdgeStyle;rounded=0;orthogonalLoop=1;jettySize=auto;html=1;exitX=0.5;exitY=1;exitDx=0;exitDy=0;entryX=0.5;entryY=0;entryDx=0;entryDy=0;" edge="1" parent="1" source="HoYcae2W5h6Q39IpQCH1-19" target="HoYcae2W5h6Q39IpQCH1-40">
          <mxGeometry relative="1" as="geometry">
            <mxPoint x="485" y="530" as="targetPoint" />
          </mxGeometry>
        </mxCell>
        <mxCell id="HoYcae2W5h6Q39IpQCH1-19" value="Step 7: Analyze and synthesize data" style="rounded=1;whiteSpace=wrap;html=1;fillColor=none;" vertex="1" parent="1">
          <mxGeometry x="360" y="470" width="250" height="40" as="geometry" />
        </mxCell>
        <mxCell id="HoYcae2W5h6Q39IpQCH1-24" style="edgeStyle=orthogonalEdgeStyle;rounded=0;orthogonalLoop=1;jettySize=auto;html=1;exitX=0.5;exitY=1;exitDx=0;exitDy=0;entryX=0.5;entryY=0;entryDx=0;entryDy=0;" edge="1" parent="1" target="HoYcae2W5h6Q39IpQCH1-21">
          <mxGeometry relative="1" as="geometry">
            <mxPoint x="485" y="570" as="sourcePoint" />
          </mxGeometry>
        </mxCell>
        <mxCell id="HoYcae2W5h6Q39IpQCH1-40" value="Step 8: Report findings" style="rounded=1;whiteSpace=wrap;html=1;fillColor=none;" vertex="1" parent="1">
          <mxGeometry x="360" y="540" width="250" height="40" as="geometry" />
        </mxCell>
        <mxCell id="HoYcae2W5h6Q39IpQCH1-42" value="Reporting the review" style="text;html=1;align=center;verticalAlign=middle;whiteSpace=wrap;rounded=0;fontStyle=1" vertex="1" parent="1">
          <mxGeometry x="250" y="545" width="70" height="30" as="geometry" />
        </mxCell>
      </root>
    </mxGraphModel>
  </diagram>
</mxfile>
